<svg class="mgtk" version="1.1" id="Layer_1" xmlns="http://www.w3.org/2000/svg" xmlns:xlink="http://www.w3.org/1999/xlink" x="0px" y="0px" width="130" height="40" viewBox="0 0 130 40" enable-background="new 0 0 130 40" xml:space="preserve">
<path fill="none" stroke="#BBBDBF" stroke-width="0.75px" stroke-miterlimit="10" d="M65,20"></path>
<g fill="#FFFFFF">
	<path d="M34.514,24.098l-1.542-3.585h-6.956l-1.543,3.585h-3.94l7.169-16.595h3.584l7.17,16.595H34.514z
		 M29.505,12.44l-2.089,4.819h4.155L29.505,12.44z" fill="#FFFFFF"></path>
	<path d="M51.156,15.646h3.727v5.889c-1.645,1.836-3.924,2.752-6.837,2.752c-2.437,0-4.483-0.807-6.137-2.422
		c-1.653-1.612-2.48-3.653-2.48-6.113c0-2.461,0.843-4.513,2.529-6.16c1.685-1.646,3.718-2.47,6.101-2.47
		c2.382,0,4.45,0.784,6.208,2.351l-1.923,2.778c-0.744-0.649-1.428-1.097-2.054-1.341c-0.625-0.245-1.303-0.367-2.03-0.367
		c-1.408,0-2.596,0.478-3.561,1.436c-0.965,0.957-1.448,2.219-1.448,3.786c0,1.568,0.463,2.822,1.389,3.762
		c0.926,0.942,2.029,1.413,3.313,1.413c1.282,0,2.349-0.245,3.204-0.734V15.646z" fill="#FFFFFF"></path>
	<path d="M69.792,7.502h3.702v16.595h-3.702l-7.906-10.398v10.398h-3.702V7.502h3.465l8.144,10.684V7.502z" fill="#FFFFFF"></path>
	<path d="M89.544,7.502v3.299h-8.263v3.42h7.431v3.156h-7.431v3.443h8.522v3.277H77.578V7.502H89.544z" fill="#FFFFFF"></path>
	<path d="M100.13,10.708v13.39h-3.701v-13.39h-4.701V7.502h13.104v3.205H100.13z" fill="#FFFFFF"></path>
	<path d="M107.537,7.502h3.704v16.595h-3.704V7.502z" fill="#FFFFFF"></path>
	<path d="M115.322,7.502h3.703v6.813l6.269-6.813h4.582l-6.601,7.335c0.57,0.792,1.623,2.268,3.157,4.427
		c1.534,2.161,2.683,3.77,3.443,4.833h-4.318l-4.867-6.553l-1.665,1.852v4.702h-3.703V7.502z" fill="#FFFFFF"></path>
	<g fill="#FFFFFF">
		<rect x="15.065" y="0.827" width="3.723" height="23.316" fill="#FFFFFF"></rect>
		<rect x="7.482" y="7.457" width="3.723" height="23.314" fill="#FFFFFF"></rect>
		<rect x="0.124" y="0.827" width="3.724" height="23.316" fill="#FFFFFF"></rect>
	</g>
	<path d="M91.611,35.135h1.369v2.773c-0.766,0.842-1.86,1.266-3.284,1.266c-1.199,0-2.203-0.395-3.013-1.184
		c-0.807-0.791-1.211-1.789-1.211-2.994c0-1.209,0.412-2.215,1.237-3.018c0.824-0.803,1.817-1.207,2.986-1.207
		c1.168,0,2.14,0.34,2.912,1.021l-0.73,1.043c-0.316-0.27-0.635-0.457-0.958-0.563c-0.321-0.105-0.693-0.158-1.118-0.158
		c-0.82,0-1.511,0.268-2.065,0.797c-0.558,0.531-0.835,1.227-0.835,2.09s0.269,1.555,0.811,2.074
		c0.542,0.523,1.198,0.785,1.969,0.785c0.768,0,1.412-0.164,1.931-0.5V35.135z" fill="#FFFFFF"></path>
	<path d="M101.601,33.602c0,1.34-0.583,2.182-1.751,2.531l2.123,2.947h-1.741l-1.937-2.729h-1.798v2.729h-1.37
		v-8.111h3.018c1.236,0,2.123,0.209,2.657,0.627C101.336,32.016,101.601,32.684,101.601,33.602z M99.778,34.752
		c0.278-0.24,0.419-0.625,0.419-1.154c0-0.531-0.143-0.895-0.429-1.092c-0.286-0.195-0.797-0.295-1.532-0.295h-1.739v2.898h1.704
		C98.975,35.109,99.503,34.992,99.778,34.752z" fill="#FFFFFF"></path>
	<path d="M110.711,37.959c-0.821,0.803-1.835,1.201-3.041,1.201s-2.22-0.398-3.039-1.201
		c-0.82-0.801-1.231-1.797-1.231-2.992s0.411-2.193,1.231-2.994c0.819-0.803,1.833-1.201,3.039-1.201s2.22,0.398,3.041,1.201
		c0.821,0.801,1.229,1.799,1.229,2.994S111.532,37.158,110.711,37.959z M109.707,32.885c-0.553-0.572-1.231-0.859-2.037-0.859
		c-0.804,0-1.482,0.287-2.035,0.859c-0.554,0.572-0.829,1.266-0.829,2.082s0.275,1.51,0.829,2.082
		c0.553,0.572,1.231,0.859,2.035,0.859c0.806,0,1.484-0.287,2.037-0.859s0.829-1.266,0.829-2.082S110.26,33.457,109.707,32.885z" fill="#FFFFFF"></path>
	<path d="M115.84,37.225c0.369,0.432,0.873,0.648,1.509,0.648c0.635,0,1.136-0.217,1.507-0.648
		c0.373-0.436,0.56-1.023,0.56-1.766v-4.49h1.367v4.547c0,1.17-0.321,2.07-0.961,2.701c-0.644,0.627-1.468,0.943-2.473,0.943
		c-1.007,0-1.831-0.316-2.472-0.943c-0.643-0.631-0.964-1.531-0.964-2.701v-4.547h1.368v4.49
		C115.281,36.201,115.468,36.789,115.84,37.225z" fill="#FFFFFF"></path>
	<path d="M128.755,31.678c0.563,0.473,0.845,1.197,0.845,2.178c0,0.984-0.287,1.705-0.863,2.16
		c-0.576,0.457-1.461,0.686-2.652,0.686h-1.438v2.379h-1.37v-8.111h2.785C127.291,30.969,128.189,31.205,128.755,31.678z
		 M127.786,35.023c0.273-0.291,0.412-0.715,0.412-1.275s-0.176-0.957-0.522-1.189c-0.35-0.232-0.896-0.348-1.636-0.348h-1.394v3.248
		h1.589C126.995,35.459,127.509,35.314,127.786,35.023z" fill="#FFFFFF"></path>
</g>
</svg>